<mxfile host="app.diagrams.net" agent="Mozilla/5.0 (X11; Linux x86_64) AppleWebKit/537.36 (KHTML, like Gecko) Chrome/134.0.0.0 Safari/537.36" version="26.2.14">
  <diagram id="M9rqjVUiHe2vD3RLGWka" name="Page-1">
    <mxGraphModel dx="679" dy="375" grid="1" gridSize="10" guides="1" tooltips="1" connect="1" arrows="1" fold="1" page="1" pageScale="1" pageWidth="850" pageHeight="1100" math="0" shadow="0">
      <root>
        <mxCell id="0" />
        <mxCell id="1" parent="0" />
        <mxCell id="f2_J_tuny3afFxUXrhWb-21" value="" style="rhombus;whiteSpace=wrap;html=1;fillColor=light-dark(#e6e6e6, #512d2b);strokeColor=none;" parent="1" vertex="1">
          <mxGeometry x="395.5" y="220" width="44" height="25.5" as="geometry" />
        </mxCell>
        <mxCell id="f2_J_tuny3afFxUXrhWb-20" value="" style="rhombus;whiteSpace=wrap;html=1;fillColor=light-dark(#e6e6e6, #32A6D3);strokeColor=none;" parent="1" vertex="1">
          <mxGeometry x="395.5" y="245.5" width="44" height="25.5" as="geometry" />
        </mxCell>
        <mxCell id="f2_J_tuny3afFxUXrhWb-17" value="" style="rounded=0;whiteSpace=wrap;html=1;strokeColor=none;fillColor=light-dark(#e6e6e6, #512d2b);" parent="1" vertex="1">
          <mxGeometry x="395.5" y="232.5" width="44" height="26" as="geometry" />
        </mxCell>
        <mxCell id="4GhMeaaaCqcDHSIBzc1a-42" value="" style="shape=table;startSize=0;container=1;collapsible=0;childLayout=tableLayout;strokeWidth=0.1;fontSize=11;fontColor=#000000;movable=1;resizable=1;rotatable=1;deletable=1;editable=1;connectable=1;fillColor=light-dark(#e6e6e6, #ededed);" parent="1" vertex="1">
          <mxGeometry x="409" y="250" width="16.74" height="10" as="geometry" />
        </mxCell>
        <mxCell id="4GhMeaaaCqcDHSIBzc1a-43" value="" style="shape=tableRow;horizontal=0;startSize=0;swimlaneHead=0;swimlaneBody=0;top=0;left=0;bottom=0;right=0;collapsible=0;dropTarget=0;fillColor=none;points=[[0,0.5],[1,0.5]];portConstraint=eastwest;strokeWidth=0.1;fontSize=11;fontColor=#000000;movable=1;resizable=1;rotatable=1;deletable=1;editable=1;connectable=1;" parent="4GhMeaaaCqcDHSIBzc1a-42" vertex="1">
          <mxGeometry width="16.74" height="4" as="geometry" />
        </mxCell>
        <mxCell id="4GhMeaaaCqcDHSIBzc1a-44" value="" style="shape=partialRectangle;html=1;whiteSpace=wrap;connectable=1;overflow=hidden;fillColor=none;top=0;left=0;bottom=0;right=0;pointerEvents=1;strokeWidth=0.1;fontSize=11;fontColor=#000000;movable=1;resizable=1;rotatable=1;deletable=1;editable=1;" parent="4GhMeaaaCqcDHSIBzc1a-43" vertex="1">
          <mxGeometry width="4" height="4" as="geometry">
            <mxRectangle width="4" height="4" as="alternateBounds" />
          </mxGeometry>
        </mxCell>
        <mxCell id="4GhMeaaaCqcDHSIBzc1a-45" value="" style="shape=partialRectangle;html=1;whiteSpace=wrap;connectable=1;overflow=hidden;fillColor=none;top=0;left=0;bottom=0;right=0;pointerEvents=1;strokeWidth=0.1;fontSize=11;fontColor=#000000;movable=1;resizable=1;rotatable=1;deletable=1;editable=1;" parent="4GhMeaaaCqcDHSIBzc1a-43" vertex="1">
          <mxGeometry x="4" width="5" height="4" as="geometry">
            <mxRectangle width="5" height="4" as="alternateBounds" />
          </mxGeometry>
        </mxCell>
        <mxCell id="4GhMeaaaCqcDHSIBzc1a-46" value="" style="shape=partialRectangle;html=1;whiteSpace=wrap;connectable=1;overflow=hidden;fillColor=none;top=0;left=0;bottom=0;right=0;pointerEvents=1;strokeWidth=0.1;fontSize=11;fontColor=#000000;movable=1;resizable=1;rotatable=1;deletable=1;editable=1;" parent="4GhMeaaaCqcDHSIBzc1a-43" vertex="1">
          <mxGeometry x="9" width="4" height="4" as="geometry">
            <mxRectangle width="4" height="4" as="alternateBounds" />
          </mxGeometry>
        </mxCell>
        <mxCell id="4GhMeaaaCqcDHSIBzc1a-47" value="" style="shape=partialRectangle;html=1;whiteSpace=wrap;connectable=1;overflow=hidden;fillColor=none;top=0;left=0;bottom=0;right=0;pointerEvents=1;strokeWidth=0.1;fontSize=11;fontColor=#000000;movable=1;resizable=1;rotatable=1;deletable=1;editable=1;" parent="4GhMeaaaCqcDHSIBzc1a-43" vertex="1">
          <mxGeometry x="13" width="4" height="4" as="geometry">
            <mxRectangle width="4" height="4" as="alternateBounds" />
          </mxGeometry>
        </mxCell>
        <mxCell id="4GhMeaaaCqcDHSIBzc1a-48" value="" style="shape=tableRow;horizontal=0;startSize=0;swimlaneHead=0;swimlaneBody=0;top=0;left=0;bottom=0;right=0;collapsible=0;dropTarget=0;fillColor=none;points=[[0,0.5],[1,0.5]];portConstraint=eastwest;strokeWidth=0.1;fontSize=11;fontColor=#000000;movable=1;resizable=1;rotatable=1;deletable=1;editable=1;connectable=1;" parent="4GhMeaaaCqcDHSIBzc1a-42" vertex="1">
          <mxGeometry y="4" width="16.74" height="3" as="geometry" />
        </mxCell>
        <mxCell id="4GhMeaaaCqcDHSIBzc1a-49" value="" style="shape=partialRectangle;html=1;whiteSpace=wrap;connectable=1;overflow=hidden;fillColor=none;top=0;left=0;bottom=0;right=0;pointerEvents=1;strokeWidth=0.1;fontSize=11;fontColor=#000000;movable=1;resizable=1;rotatable=1;deletable=1;editable=1;" parent="4GhMeaaaCqcDHSIBzc1a-48" vertex="1">
          <mxGeometry width="4" height="3" as="geometry">
            <mxRectangle width="4" height="3" as="alternateBounds" />
          </mxGeometry>
        </mxCell>
        <mxCell id="4GhMeaaaCqcDHSIBzc1a-50" value="" style="shape=partialRectangle;html=1;whiteSpace=wrap;connectable=1;overflow=hidden;fillColor=none;top=0;left=0;bottom=0;right=0;pointerEvents=1;strokeWidth=0.1;fontSize=11;fontColor=#000000;movable=1;resizable=1;rotatable=1;deletable=1;editable=1;" parent="4GhMeaaaCqcDHSIBzc1a-48" vertex="1">
          <mxGeometry x="4" width="5" height="3" as="geometry">
            <mxRectangle width="5" height="3" as="alternateBounds" />
          </mxGeometry>
        </mxCell>
        <mxCell id="4GhMeaaaCqcDHSIBzc1a-51" value="" style="shape=partialRectangle;html=1;whiteSpace=wrap;connectable=1;overflow=hidden;fillColor=none;top=0;left=0;bottom=0;right=0;pointerEvents=1;strokeWidth=0.1;fontSize=11;fontColor=#000000;movable=1;resizable=1;rotatable=1;deletable=1;editable=1;" parent="4GhMeaaaCqcDHSIBzc1a-48" vertex="1">
          <mxGeometry x="9" width="4" height="3" as="geometry">
            <mxRectangle width="4" height="3" as="alternateBounds" />
          </mxGeometry>
        </mxCell>
        <mxCell id="4GhMeaaaCqcDHSIBzc1a-52" value="" style="shape=partialRectangle;html=1;whiteSpace=wrap;connectable=1;overflow=hidden;fillColor=none;top=0;left=0;bottom=0;right=0;pointerEvents=1;strokeWidth=0.1;fontSize=11;fontColor=#000000;movable=1;resizable=1;rotatable=1;deletable=1;editable=1;" parent="4GhMeaaaCqcDHSIBzc1a-48" vertex="1">
          <mxGeometry x="13" width="4" height="3" as="geometry">
            <mxRectangle width="4" height="3" as="alternateBounds" />
          </mxGeometry>
        </mxCell>
        <mxCell id="4GhMeaaaCqcDHSIBzc1a-53" value="" style="shape=tableRow;horizontal=0;startSize=0;swimlaneHead=0;swimlaneBody=0;top=0;left=0;bottom=0;right=0;collapsible=0;dropTarget=0;fillColor=none;points=[[0,0.5],[1,0.5]];portConstraint=eastwest;strokeWidth=0.1;fontSize=11;fontColor=#000000;movable=1;resizable=1;rotatable=1;deletable=1;editable=1;connectable=1;" parent="4GhMeaaaCqcDHSIBzc1a-42" vertex="1">
          <mxGeometry y="7" width="16.74" height="3" as="geometry" />
        </mxCell>
        <mxCell id="4GhMeaaaCqcDHSIBzc1a-54" value="" style="shape=partialRectangle;html=1;whiteSpace=wrap;connectable=1;overflow=hidden;fillColor=none;top=0;left=0;bottom=0;right=0;pointerEvents=1;strokeWidth=0.1;fontSize=11;fontColor=#000000;movable=1;resizable=1;rotatable=1;deletable=1;editable=1;" parent="4GhMeaaaCqcDHSIBzc1a-53" vertex="1">
          <mxGeometry width="4" height="3" as="geometry">
            <mxRectangle width="4" height="3" as="alternateBounds" />
          </mxGeometry>
        </mxCell>
        <mxCell id="4GhMeaaaCqcDHSIBzc1a-55" value="" style="shape=partialRectangle;html=1;whiteSpace=wrap;connectable=1;overflow=hidden;fillColor=none;top=0;left=0;bottom=0;right=0;pointerEvents=1;strokeWidth=0.1;fontSize=11;fontColor=#000000;movable=1;resizable=1;rotatable=1;deletable=1;editable=1;" parent="4GhMeaaaCqcDHSIBzc1a-53" vertex="1">
          <mxGeometry x="4" width="5" height="3" as="geometry">
            <mxRectangle width="5" height="3" as="alternateBounds" />
          </mxGeometry>
        </mxCell>
        <mxCell id="4GhMeaaaCqcDHSIBzc1a-56" value="" style="shape=partialRectangle;html=1;whiteSpace=wrap;connectable=1;overflow=hidden;fillColor=none;top=0;left=0;bottom=0;right=0;pointerEvents=1;strokeWidth=0.1;fontSize=11;fontColor=#000000;movable=1;resizable=1;rotatable=1;deletable=1;editable=1;" parent="4GhMeaaaCqcDHSIBzc1a-53" vertex="1">
          <mxGeometry x="9" width="4" height="3" as="geometry">
            <mxRectangle width="4" height="3" as="alternateBounds" />
          </mxGeometry>
        </mxCell>
        <mxCell id="4GhMeaaaCqcDHSIBzc1a-57" value="" style="shape=partialRectangle;html=1;whiteSpace=wrap;connectable=1;overflow=hidden;fillColor=none;top=0;left=0;bottom=0;right=0;pointerEvents=1;strokeWidth=0.1;fontSize=11;fontColor=#000000;movable=1;resizable=1;rotatable=1;deletable=1;editable=1;" parent="4GhMeaaaCqcDHSIBzc1a-53" vertex="1">
          <mxGeometry x="13" width="4" height="3" as="geometry">
            <mxRectangle width="4" height="3" as="alternateBounds" />
          </mxGeometry>
        </mxCell>
        <mxCell id="4GhMeaaaCqcDHSIBzc1a-8" value="" style="endArrow=none;html=1;rounded=0;" parent="1" edge="1">
          <mxGeometry width="50" height="50" relative="1" as="geometry">
            <mxPoint x="409.4" y="230" as="sourcePoint" />
            <mxPoint x="427" y="260" as="targetPoint" />
          </mxGeometry>
        </mxCell>
        <mxCell id="4GhMeaaaCqcDHSIBzc1a-11" value="" style="endArrow=none;html=1;rounded=0;" parent="1" edge="1">
          <mxGeometry width="50" height="50" relative="1" as="geometry">
            <mxPoint x="426" y="230" as="sourcePoint" />
            <mxPoint x="408" y="260" as="targetPoint" />
          </mxGeometry>
        </mxCell>
        <mxCell id="4GhMeaaaCqcDHSIBzc1a-26" value="E" style="text;html=1;strokeColor=none;fillColor=none;align=center;verticalAlign=middle;whiteSpace=wrap;rounded=0;fontSize=9;fontColor=#000000;rotation=324;" parent="1" vertex="1">
          <mxGeometry x="398.92999999999995" y="233.5" width="10.07" height="10" as="geometry" />
        </mxCell>
        <mxCell id="4GhMeaaaCqcDHSIBzc1a-27" value="IT" style="text;html=1;strokeColor=none;fillColor=none;align=center;verticalAlign=middle;whiteSpace=wrap;rounded=0;fontSize=9;fontColor=#000000;" parent="1" vertex="1">
          <mxGeometry x="412" y="228.5" width="12.63" height="10" as="geometry" />
        </mxCell>
        <mxCell id="4GhMeaaaCqcDHSIBzc1a-28" value="L" style="text;html=1;strokeColor=none;fillColor=none;align=center;verticalAlign=middle;whiteSpace=wrap;rounded=0;fontSize=9;fontColor=#000000;rotation=30;" parent="1" vertex="1">
          <mxGeometry x="428" y="235" width="6" height="7" as="geometry" />
        </mxCell>
        <mxCell id="AagjrkoOQksL0iqlX_oT-1" value="" style="ellipse;whiteSpace=wrap;html=1;aspect=fixed;fontSize=9;" parent="1" vertex="1">
          <mxGeometry x="407" y="233.5" width="5" height="5" as="geometry" />
        </mxCell>
        <mxCell id="AagjrkoOQksL0iqlX_oT-3" value="" style="ellipse;whiteSpace=wrap;html=1;aspect=fixed;fontSize=9;" parent="1" vertex="1">
          <mxGeometry x="423" y="233.5" width="5" height="5" as="geometry" />
        </mxCell>
        <mxCell id="f2_J_tuny3afFxUXrhWb-15" value="" style="shape=stencil(rVPdDoIgGH2WLrh0I5ir22b5BL2AKQaTxAmlvX38aCuEG+fGgO+c7zv7gAPAmaRFRwCCFOAzQAhDqGcdD15cyI6UyoE1G0nlYKl60ZCBVWoSYC0lPVOGxRcATzrHDJzdirK59+LZVh4BUB7latGTAPGlGeeuAwvlwaSuML0tiJl+iJepHr3zvl28T6c4rD6LcNb+iCCU/omg4wqRwwYaG5zFb2OL61ihsfJdSi5k3Btz1i5J9OZKmdSLLTEbRU2ldQ+COiPkLa0bsZf+WTFj2rKFsy3qfqMFPg==);whiteSpace=wrap;html=1;aspect=fixed;rotation=90;fillColor=light-dark(#32a6d3, #8282ff);strokeColor=light-dark(#32a6d3, #ededed);gradientColor=none;" parent="1" vertex="1">
          <mxGeometry x="391.87" y="220" width="51" height="51" as="geometry" />
        </mxCell>
      </root>
    </mxGraphModel>
  </diagram>
</mxfile>
